<svg version="1.0" xmlns="http://www.w3.org/2000/svg" viewBox="0 0 594 420"><g fill="#fff"><path d="M477.3 84.4c-14 6.5-25.3 17.4-45.1 43.1-28.7 37.3-26.9 35.3-32 36.1-11 1.7-27.4-1.2-38.3-6.7-9.9-4.9-13.5-12.1-9.3-18.4 2-3 .7-3.2-4.3-.8-4.4 2.1-7.3 6.6-7.3 11.5 0 11.6 24.8 22.6 48.6 21.6l9.1-.4-7.8 9.1c-20.7 23.9-24.7 27.3-36.5 30.9-11.9 3.7-19.9 8.1-22.5 12.2-3.6 5.8-2.5 11.5 2.6 13.4 5 1.8 6.7 2.2 6.1 1.2-3.1-5 17-17.1 37.4-22.6 19.1-5 26.4-6 47-6 23.2-.1 42.8 2.8 59.8 8.8 6.8 2.4 4.9.9-5-4-18.6-9.2-35.6-11.8-73.4-11.3-25.4.4-25.4.4-22.7-1.5 3.7-2.5 20.3-19.4 27.2-27.4 4.6-5.5 6.6-6.9 14.5-10.5 41-18.5 62.6-36.5 71.2-59.3 3.4-9.1 3.2-14.7-.5-18.5-2.5-2.5-3.7-2.9-8.3-2.9-3.5 0-7.1.8-10.5 2.4zm13.8 4.9c2.5 5.5-4.1 17.3-18.9 34.3-13 14.8-29.2 26.8-42.6 31.4l-5.7 1.9 7.9-10.2c4.4-5.6 9.7-12.5 11.8-15.3 14.5-19 30.3-36.8 36.8-41.6 4.9-3.5 9.2-3.7 10.7-.5zM116.5 84.1c-25.4 5-48 20-56 37-3.4 7.3-3.3 11.3.4 15 1.6 1.6 3.8 2.9 4.8 2.9s2.9.3 4.2.7l2.5.6-2.2-3.5c-4.1-6.6-2.6-10.6 7.7-19.9 8.3-7.6 14.9-11.7 27.2-17 13.5-5.9 23.2-8 38.9-8.6 11.6-.5 14.8-.2 21.8 1.5 19.9 5.1 29.5 17 26.2 32.6-3.2 15.4-16.9 34.3-35.5 48.9-30.6 23.9-79.2 43.1-112.7 44.5-17.1.7-20.7-1.5-17.9-10.9 2.3-7.7 19.7-23.1 39.9-35.3 3.4-2 6.2-3.9 6.2-4.1 0-.9-13.4 5.7-21.7 10.6-12.7 7.4-20.1 12.9-26.1 19.3-11.9 12.5-10.8 22.6 3 28.7 4.4 1.9 7.5 2.3 18.4 2.7 17.1.6 30.3-1.5 49.4-7.8 29.5-9.6 53.4-23.3 78.1-44.7 21.6-18.6 31.8-40.1 27.9-58.9-3.6-17.2-14.1-26-39-32.6-8.7-2.3-37.1-3.4-45.5-1.7z"/><path d="M147.3 104.1c-9.6 4.7-47.7 57.7-55.3 76.8-2.9 7.3-2.4 10.5 1.5 10.9 2.2.2 3.9-.6 6.5-2.8 2.1-1.9 2.6-2.7 1.3-2-2.8 1.3-4.3 1.3-4.3-.2 0-2.9 16.5-25.5 36.3-49.6 15.6-19 22.5-26 26.5-26.8 1.7-.4 3.2-1 3.2-1.4 0-1.9-7.8-7-10.8-7-.4 0-2.6.9-4.9 2.1zM493.4 127.3c-3.5 4.1-5.6 9.2-5.2 12.5.5 4.4 3.5 3.9 8.7-1.2 2.6-2.6 6-5 7.5-5.4l2.8-.8-2.6-3.1c-1.4-1.7-3.9-3.6-5.6-4.1-2.7-1-3.2-.8-5.6 2.1zM334.2 128.3c-3 3.1-6.4 11.4-5.7 13.6 1.2 3.9 3.6 3.2 9.7-2.5 3.5-3.1 6.6-5.3 7.4-5 3.6 1.4-.5-4.8-4.6-6.9-3.8-2-4.3-1.9-6.8.8zM511.8 148.2c-2.5 2.9-6.6 8.1-9.2 11.5-2.6 3.4-5.3 6.6-6.1 7-.7.4-4 3.3-7.2 6.4-8.9 8.5-22.8 18.8-23.9 17.7-.2-.3 2.4-4.9 5.7-10.4 9.3-15.3 18.4-26.8 20.1-25.8.5.4.8-.4.6-1.7-.3-2.2-5.9-6.9-8.1-6.9-1.7 0-9.8 9-15.8 17.5-6.3 8.9-12 19.7-14 26.4-1.3 4.2-1.2 4.4 1.5 6.7 3.3 2.9 5.5 3 10.4.5 4-2.1 16.7-12.6 23.3-19.3l4.1-4.3-3.1 5.1c-5.2 8.6-6.3 12.1-5.1 15.8 1.2 3.9 5.4 8.1 6.9 7.1.6-.3 1.1-1.6 1.1-2.9 0-5.4 11.3-18.3 27-30.7 11.8-9.4 20.9-15.8 19.4-13.9-.6.8-3.9 5.2-7.3 9.7-7.1 9.5-13.1 21.3-13.1 25.9 0 3.9 3.4 8.4 6.4 8.4 1.2 0 3.3-.8 4.6-1.7 9.1-6.2 37-32.6 37-35 0-.8-4.6 2.9-10.3 8.4-9.5 9-25.2 21.1-26.2 20.1-1.7-1.7 13.4-25.4 22.1-34.9 1.3-1.4 2.4-3.4 2.4-4.5 0-2.9-2.8-6.4-5.1-6.4-5.2 0-21.2 11.2-36.9 25.9-7.9 7.3-10.8 9.6-9.7 7.4 3.6-6.9 20.3-26.7 21.8-25.7.5.3.9-.4.9-1.5 0-2.3-5.4-7.1-8-7.1-1 0-3.8 2.4-6.2 5.2zM259.1 150.4c-2.9 2.9-6.9 7.8-9 10.7-5.1 7.4-26.7 23.6-40.9 30.8-11.1 5.6-16.5 2.7-10.8-5.9 2-3.1 3.4-4 7.5-5 5.9-1.4 16.6-6.8 23.4-11.7 5.6-4.2 13.7-13.7 13.7-16.3 0-3-5.6-7-9.9-7-10 0-23.7 7.7-35.6 19.9-11.2 11.5-16.3 22.5-13.3 28.8 1.8 3.8 7.4 7.3 11.7 7.3 6.9 0 25.3-10.9 42.4-25.1l3.8-3.2-3 4.5c-3.8 5.6-7.1 13.2-7.1 16.3 0 2.6 4.5 8.5 6.3 8.5.7-.1 2.3-2.4 3.6-5.2 3-6.3 18.1-21.6 30.6-30.8 15.4-11.4 15.5-11.4 7.5-.4-7.3 9.9-12.1 19-13.5 25.1-.6 2.8-.2 3.7 2.3 6.3 1.7 1.6 4.1 3 5.4 3 3 0 10.8-5.3 18.7-12.6l6.1-5.6-2 4.3c-3.3 7.3-2.4 11.7 2.9 13.9 5.1 2.1 11.5-2.3 27.9-18.9 13.7-14 17.3-18.1 15.4-18.1-.4 0-6.3 5.2-13.1 11.5-11.2 10.4-20.2 17.5-22.2 17.5-1.2 0 .6-4.3 5.1-12 7.2-12.4 17.3-24.5 19.7-23.6.7.3 1.3-.2 1.3-1 0-2-6.3-8.4-8.3-8.4-2.8 0-7.6 5.1-14.1 14.9-4 6.1-9.2 12.3-13.9 16.7-7.8 7.1-18.3 14.2-19.4 13-1-.9 6.6-15.2 11.5-21.7 2.3-3.2 6.3-8 8.8-10.8 5-5.6 5.2-8.1.8-12.2l-2.5-2.3-3.7 1.9c-6 3.2-26 18.7-35.1 27.1-8 7.5-8.3 7.7-5.6 3.4 7.5-12 16.9-23 19.7-23 1 0 1.8-.3 1.8-.6 0-1.5-4.4-6.6-6.9-7.9-2.7-1.4-2.9-1.3-8 3.9zm-21.1.8c0 2-17 18-24 22.7-6.7 4.4-10.8 5.5-9.1 2.3 2.4-4.4 21.1-20.4 28.6-24.5 3.7-2 4.5-2.1 4.5-.5zM442.5 224.7c-19 1.6-52.5 7.8-80.5 14.9-22.2 5.6-21 5.2-21 7.5 0 2 .1 2 3.2-.2 4.5-3.3 13.2-3.7 17.6-1 3.6 2.3 7 7.2 7.9 11.3.3 1.6.7 2.8.8 2.8.1 0 2.2-.7 4.6-1.6 7.4-2.6 31.1-8.2 44.1-10.3 36.2-6 71-5.3 97.8 2 25.8 7 44.2 20.5 48.6 35.7 5 16.8-7.7 39.8-27.9 51-12.3 6.7-22.6 9.4-39.2 9.9-21 .7-34.3-2.9-45.2-12.1-8.6-7.4-11.1-19.6-6.5-31.6l2.1-5.5-3.1 3.5c-6.7 7.7-8.6 17.4-4.9 25.5 3.9 8.6 18.7 18.8 33.1 22.8 15.5 4.4 37.3 4.6 55.2.7 37.2-8.1 59.9-37 52.3-66.5-8-30.5-46.2-52.7-100.6-58.5-8.8-.9-29.3-1.1-38.4-.3zM317 244.1v7.1l-2.9-.7c-6.6-1.4-14.1 5.1-14.1 12.3 0 8.3 4.9 13.1 12 11.7 1.9-.4 5-.7 6.8-.6l3.2.1v-37h-2.5c-2.4 0-2.5.2-2.5 7.1zm0 17.8c0 8.6-.4 9.1-6.1 9.1-4 0-6.3-3.7-5.6-9.1.7-5.5 3.1-7.9 7.9-7.9h3.8v7.9zM81 257v17h2.5c2.4 0 2.5-.2 2.5-7v-7h7c6.3 0 7-.2 7-2s-.7-2-7-2h-7v-12h8c7.3 0 8-.2 8-2 0-1.9-.7-2-10.5-2H81v17zM125.5 241c-1.1 1.7.5 5 2.4 5 2.4 0 4.5-2.5 3.7-4.5-.6-1.7-5.1-2.1-6.1-.5zM329.4 241.4c-1 2.6.4 4.8 2.8 4.4 1.7-.2 2.3-1 2.3-2.8 0-1.8-.6-2.6-2.3-2.8-1.3-.2-2.5.3-2.8 1.2zM257.7 245.7c-.4.3-.7 1.7-.7 3 0 1.8-.5 2.3-2.5 2.3-1.6 0-2.5.6-2.5 1.5s.9 1.5 2.5 1.5c2.5 0 2.5.1 2.5 8.5 0 7.2.3 8.8 2 10.5 2 2 4.7 2.5 8.7 1.4 3-.8 1.8-3.4-1.6-3.4-4.2 0-5.1-1.7-5.1-9.7V254h4c2.9 0 4-.4 4-1.5s-1.1-1.5-4-1.5c-3.8 0-4-.2-4-3s-1.7-4-3.3-2.3zM116 250.7c-.8.3-2.3 1.2-3.2 2.1-1.6 1.4-1.8 1.3-1.8-.1 0-1-.8-1.7-2-1.7-1.9 0-2 .7-2 11.5s.1 11.5 2 11.5c1.8 0 2-.7 2-7.8 0-9 1.4-11.2 6.9-11.2 2.8 0 3.2-.3 2.9-2.2-.3-2.3-2.1-3.1-4.8-2.1zM142.5 250.7c-3.2.8-5.5 3.4-5.5 6.3 0 3.4 2.3 5.5 7.6 6.9 4.7 1.3 6.9 3.3 6 5.7-.5 1.2-1.7 1.5-5.4 1.2-2.6-.3-5.4-.8-6.3-1.2-1.1-.5-1.9-.2-2.3.9-1.2 3.3 9.9 5.9 14.7 3.4 3-1.6 3.7-2.8 3.7-6.6 0-3.7-2.1-5.5-8.7-7.2-4.9-1.3-6-2.6-4.2-4.7 1.2-1.5 5.5-1.6 9.8-.3.8.2 1.6-.4 1.9-1.3.2-1.2-.7-2-3.5-2.7-4-1.1-4.6-1.2-7.8-.4zM166.3 251.4c-4.6 2.1-6.7 5.9-6.7 12.3 0 4.4.4 5.8 2.5 7.9 3.4 3.3 9.2 4.1 14.3 2 3.2-1.3 3.6-1.8 2.6-3.1-.9-1.1-1.7-1.2-3-.5-4.6 2.5-12-.3-12-4.5 0-1.2 1.6-1.5 8-1.5 8.6 0 8.5.1 8-6-.4-5.7-7.7-9.2-13.7-6.6zm8.7 4.5c1.8 3.6 1.2 4.1-5 4.1-6 0-6.1 0-4.9-2.3 1.6-2.9 2.8-3.7 6.1-3.7 1.7 0 3.1.7 3.8 1.9zM220.8 251.6c-1.6.8-2.8 1-2.8.4 0-.5-.9-1-2-1-1.9 0-2 .7-2 11.5s.1 11.5 2 11.5c1.8 0 2-.7 2-7.8 0-9 1.4-11.2 6.9-11.2 2.8 0 3.2-.3 2.9-2.3-.4-2.7-3.3-3.2-7-1.1zM235.4 251.4c-2.9 1.3-4.4 3.3-4.4 6 0 2.6 2.8 4.8 8 6.5 4.6 1.5 5.5 2.2 5.5 4.2 0 2.1-.5 2.4-4.2 2.7-2.3.2-5.1-.2-6.2-.7-1.4-.8-2.2-.7-3.1.4-1 1.3-.6 1.8 2.6 3.1 7.6 3.2 16.4.2 16.4-5.6 0-3.4-2.2-5.4-8.5-7.7-3.7-1.4-5-2.4-5-3.8 0-2.4 4.1-3.2 8.5-1.7 2.3.8 3 .7 3.4-.5.9-2.2.9-2.1-3.1-3.2-4.8-1.4-6.1-1.3-9.9.3z"/><path d="M347 251.3c-6.4 2.2-9 11.9-5 18.5 3.8 6.3 13.2 6.9 18.3 1.2 2.2-2.5 2.7-3.9 2.7-8.5s-.4-6-2.7-8.4c-3.3-3.5-8.3-4.6-13.3-2.8zm9.2 4.4c2.3 2.6 3.1 7.5 1.8 10.9-1.4 3.5-2.6 4.4-6.7 4.4s-6.3-3-6.3-8.5 2.2-8.5 6.4-8.5c1.9 0 4 .8 4.8 1.7zM126 262.5V274h5v-23h-5v11.5zM186 261c0 8.9.2 10.2 2.1 12.1 1.8 1.8 2.8 2 6.8 1.4 2.5-.3 6.1-.6 7.9-.6l3.2.1v-23h-2.5c-2.5 0-2.5 0-2.5 9.4 0 8.9-.1 9.4-2.2 10-7.3 1.9-8.8 0-8.8-11.3 0-7.4-.2-8.1-2-8.1-1.9 0-2 .7-2 10zM274.2 261.1c.3 9.3.5 10.2 2.8 12.1 2 1.6 3.3 1.9 6.5 1.3 2.2-.4 5.5-.7 7.3-.6l3.2.1v-11.5c0-10.8-.1-11.5-2-11.5s-2 .7-2 9c0 10-.9 11.4-7.3 10.8l-3.2-.3-.3-9.8c-.3-9.7-.3-9.7-2.8-9.7h-2.6l.4 10.1zM330 262.5c0 10.8.1 11.5 2 11.5s2-.7 2-11.5-.1-11.5-2-11.5-2 .7-2 11.5z"/><path d="M37.8 274c14.9 14.6 36.6 26.1 60.4 32 16.1 4 30.6 5.3 52.8 4.6 27.7-.8 52.8-4.5 87.2-13.2 11.3-2.8 52.9-15.2 60.5-18.1 1.4-.5-2.4-.8-10-.9-6.7-.1-12.9-.2-13.7-.2-.8-.1-4.2.1-7.5.4-5.2.5-6.5.2-9.5-1.8l-3.5-2.4-3.4 2.3c-3.6 2.4-4.6 2.6-20.6 2.7-7.6.1-13.1.9-23.1 3.3-7.2 1.8-21.6 4.7-32 6.5-18.3 3.1-19.7 3.2-46.9 3.2-26.9 0-28.5-.1-40.3-2.7-19.5-4.4-37.7-11.4-54.2-20.9-2.7-1.5-1.7-.3 3.8 5.2z"/></g></svg>