<svg width="100" height="100" version="1.1" xmlns="http://www.w3.org/2000/svg"><path fill="rgb(255,255,255)" stroke="rgb(255,255,255)" stroke-width="1" opacity="0" d="M 0 0 L 100 0 L 100 100 L 0 100 L 0 0 Z M 35 13 L 28 49 L 27 66 L 19 67 L 14 73 L 15 82 L 21 86 L 30 85 L 34 80 L 34 65 L 35 64 Q 34 61 37 62 L 38 65 L 38 80 L 39 82 L 43 84 L 44 89 L 50 93 Q 56 95 55 91 Q 49 91 46 87 L 54 85 L 58 80 L 57 71 Q 54 64 45 66 L 44 49 L 37 15 Q 38 12 35 13 Z M 56 13 L 56 14 L 66 14 L 66 17 L 55 18 L 66 18 L 66 21 L 56 21 L 56 22 L 66 22 L 66 25 L 55 26 L 66 26 L 66 29 L 56 29 L 56 30 L 66 30 L 66 33 L 55 34 L 66 34 L 66 37 L 56 37 L 56 38 L 66 38 L 66 41 L 55 42 L 66 42 L 66 45 L 56 45 L 56 46 L 66 46 L 66 49 L 55 50 L 68 50 L 70 51 L 71 54 L 71 68 L 72 69 Q 71 80 73 86 L 79 86 L 79 86 L 79 16 L 77 13 L 56 13 Z "></path><path fill="rgb(0,0,0)" stroke="rgb(0,0,0)" stroke-width="1" opacity="0" d="M 68 15 L 73 15.5 L 73 34.5 L 74 34.5 L 74.5 15 L 77 17.5 L 77 84 L 75 83.5 L 75 73.5 L 74 72.5 L 74 58.5 L 72 49 L 68 48 L 68 15 Z M 74 37 L 73 42 L 74 42 L 74 37 Z "></path><path fill="rgb(0,0,0)" stroke="rgb(0,0,0)" stroke-width="1" opacity="0" d="M 35 24 Q 39 22.6 37 29.5 L 39 35.5 L 41 52.5 L 35 57.5 L 32 62.5 L 32 77.5 L 27.5 83 L 22.5 84 L 17 79.5 L 16 74.5 L 20.5 69 L 24.5 68 L 29 69 L 30 66.5 L 30 52.5 L 32 46.5 L 35 24 Z M 35 46 Q 32 47 33 51 Q 34 53 38 52 Q 40 51 39 48 Q 38 45 35 46 Z M 22 71 Q 18 72 19 79 Q 20 82 27 81 Q 30 80 29 74 Q 28 70 22 71 Z "></path><path fill="rgb(0,0,0)" stroke="rgb(0,0,0)" stroke-width="1" opacity="0" d="M 35.5 47 L 38 48.5 L 36.5 51 L 34 49.5 L 35.5 47 Z "></path><path fill="rgb(0,0,0)" stroke="rgb(0,0,0)" stroke-width="1" opacity="0" d="M 40.5 56 L 42 56.5 L 42 66.5 L 43 69 L 49.5 68 L 55 72.5 L 56 77.5 L 51.5 83 L 46.5 84 L 41 79.5 L 40 77.5 L 40 62.5 L 38 58.5 L 40.5 56 Z M 46 71 Q 42 72 43 79 Q 44 82 51 81 Q 54 80 53 74 Q 52 70 46 71 Z "></path><path fill="rgb(0,0,0)" stroke="rgb(0,0,0)" stroke-width="1" opacity="0" d="M 23.5 73 L 27 75.5 L 24.5 79 L 21 76.5 L 23.5 73 Z "></path><path fill="rgb(0,0,0)" stroke="rgb(0,0,0)" stroke-width="1" opacity="0" d="M 47.5 73 L 51 75.5 L 48.5 79 L 45 76.5 L 47.5 73 Z "></path><path fill="rgb(0,0,0)" stroke="rgb(0,0,0)" stroke-width="1" opacity="0.8" d="M 35 20 Q 38 19 37 22 Q 34 23 35 20 Z "></path><path fill="rgb(0,0,0)" stroke="rgb(0,0,0)" stroke-width="1" opacity="0.8" d="M 34.5 50 L 36.5 51 L 38 50.5 L 35.5 52 L 34.5 50 Z "></path><path fill="rgb(0,0,0)" stroke="rgb(0,0,0)" stroke-width="1" opacity="0.8" d="M 69.5 50 L 72 50.5 Q 69.9 53.8 69.5 50 Z "></path><path fill="rgb(0,0,0)" stroke="rgb(0,0,0)" stroke-width="1" opacity="0.8" d="M 39.5 54 Q 43.2 56.2 38 58.5 L 36.5 61 L 34.5 60 L 33 60.5 Q 34.3 57.8 35.5 60 Q 37.8 60.8 37 58.5 L 39.5 54 Z "></path><path fill="rgb(0,0,0)" stroke="rgb(0,0,0)" stroke-width="1" opacity="0.8" d="M 29.5 55 L 30 59.5 L 29 59.5 L 29.5 55 Z "></path><path fill="rgb(0,0,0)" stroke="rgb(0,0,0)" stroke-width="1" opacity="0.8" d="M 42.5 55 L 43 59.5 L 42 59.5 L 42.5 55 Z "></path><path fill="rgb(0,0,0)" stroke="rgb(0,0,0)" stroke-width="1" opacity="0.8" d="M 71.5 57 L 72 61.5 L 71 61.5 L 71.5 57 Z "></path><path fill="rgb(0,0,0)" stroke="rgb(0,0,0)" stroke-width="1" opacity="0.8" d="M 27.5 63 L 28 67 L 25 66.5 L 27 66 L 27.5 63 Z "></path><path fill="rgb(0,0,0)" stroke="rgb(0,0,0)" stroke-width="1" opacity="0.8" d="M 44.5 63 L 45 66 L 47 66.5 L 44 67 L 44.5 63 Z "></path><path fill="rgb(0,0,0)" stroke="rgb(0,0,0)" stroke-width="1" opacity="0.8" d="M 73.5 64 L 74 68.5 L 73 68.5 L 73.5 64 Z "></path><path fill="rgb(0,0,0)" stroke="rgb(0,0,0)" stroke-width="1" opacity="0.8" d="M 19.5 67 L 20.5 69 L 19.5 67 Z "></path><path fill="rgb(0,0,0)" stroke="rgb(0,0,0)" stroke-width="1" opacity="0.8" d="M 52.5 67 L 51.5 69 L 52.5 67 Z "></path><path fill="rgb(0,0,0)" stroke="rgb(0,0,0)" stroke-width="1" opacity="0.8" d="M 15.5 71 L 16.5 73 L 15.5 71 Z "></path><path fill="rgb(0,0,0)" stroke="rgb(0,0,0)" stroke-width="1" opacity="0.8" d="M 56.5 71 L 55.5 73 L 56.5 71 Z "></path><path fill="rgb(0,0,0)" stroke="rgb(0,0,0)" stroke-width="1" opacity="0.8" d="M 72.5 72 L 73 76.5 L 72 76.5 L 72.5 72 Z "></path><path fill="rgb(0,0,0)" stroke="rgb(0,0,0)" stroke-width="1" opacity="0.8" d="M 16.5 79 L 15.5 81 L 16.5 79 Z "></path><path fill="rgb(0,0,0)" stroke="rgb(0,0,0)" stroke-width="1" opacity="0.8" d="M 31.5 79 L 32.5 81 L 31.5 79 Z "></path><path fill="rgb(0,0,0)" stroke="rgb(0,0,0)" stroke-width="1" opacity="0.8" d="M 40.5 79 L 39.5 81 L 40.5 79 Z "></path><path fill="rgb(0,0,0)" stroke="rgb(0,0,0)" stroke-width="1" opacity="0.8" d="M 55.5 79 L 56.5 81 L 55.5 79 Z "></path><path fill="rgb(0,0,0)" stroke="rgb(0,0,0)" stroke-width="1" opacity="0.8" d="M 74.5 79 L 75 83.5 L 74 83.5 L 74.5 79 Z "></path><path fill="rgb(0,0,0)" stroke="rgb(0,0,0)" stroke-width="1" opacity="0.8" d="M 20.5 83 L 19.5 85 L 20.5 83 Z "></path><path fill="rgb(0,0,0)" stroke="rgb(0,0,0)" stroke-width="1" opacity="0.8" d="M 27.5 83 L 28.5 85 L 27.5 83 Z "></path><path fill="rgb(0,0,0)" stroke="rgb(0,0,0)" stroke-width="1" opacity="0.8" d="M 51.5 83 L 52.5 85 L 51.5 83 Z "></path><path fill="rgb(0,0,0)" stroke="rgb(0,0,0)" stroke-width="1" opacity="0.8" d="M 45 85 L 47 85.5 L 44 87.5 L 45 85 Z "></path><path fill="rgb(0,0,0)" stroke="rgb(0,0,0)" stroke-width="1" opacity="0.8" d="M 49.5 90 L 48.5 92 L 49.5 90 Z "></path><path fill="rgb(0,0,0)" stroke="rgb(0,0,0)" stroke-width="1" opacity="0.35294117647058826" d="M 76.5 13 L 78.5 16 L 76.5 13 Z "></path><path fill="rgb(0,0,0)" stroke="rgb(0,0,0)" stroke-width="1" opacity="0.35294117647058826" d="M 75.5 15 L 76.5 17 L 75.5 15 Z "></path><path fill="rgb(0,0,0)" stroke="rgb(0,0,0)" stroke-width="1" opacity="0.35294117647058826" d="M 33.5 20 L 34 22.5 L 33 22.5 L 33.5 20 Z "></path><path fill="rgb(0,0,0)" stroke="rgb(0,0,0)" stroke-width="1" opacity="0.35294117647058826" d="M 38.5 20 L 39 22.5 L 38 22.5 L 38.5 20 Z "></path><path fill="rgb(0,0,0)" stroke="rgb(0,0,0)" stroke-width="1" opacity="0.35294117647058826" d="M 35 22 Q 38 21 37 24 Q 34 25 35 22 Z "></path><path fill="rgb(0,0,0)" stroke="rgb(0,0,0)" stroke-width="1" opacity="0.35294117647058826" d="M 31.5 44 L 32 46.5 L 31 46.5 L 31.5 44 Z "></path><path fill="rgb(0,0,0)" stroke="rgb(0,0,0)" stroke-width="1" opacity="0.35294117647058826" d="M 40.5 44 L 41 46.5 L 40 46.5 L 40.5 44 Z "></path><path fill="rgb(0,0,0)" stroke="rgb(0,0,0)" stroke-width="1" opacity="0.35294117647058826" d="M 34.5 46 L 33.5 48 L 34.5 46 Z "></path><path fill="rgb(0,0,0)" stroke="rgb(0,0,0)" stroke-width="1" opacity="0.35294117647058826" d="M 37.5 46 L 38.5 48 L 37.5 46 Z "></path><path fill="rgb(0,0,0)" stroke="rgb(0,0,0)" stroke-width="1" opacity="0.35294117647058826" d="M 28.5 48 L 29 50.5 L 28 50.5 L 28.5 48 Z "></path><path fill="rgb(0,0,0)" stroke="rgb(0,0,0)" stroke-width="1" opacity="0.35294117647058826" d="M 43.5 48 L 44 50.5 L 43 50.5 L 43.5 48 Z "></path><path fill="rgb(0,0,0)" stroke="rgb(0,0,0)" stroke-width="1" opacity="0.35294117647058826" d="M 33.5 50 L 34.5 52 L 33.5 50 Z "></path><path fill="rgb(0,0,0)" stroke="rgb(0,0,0)" stroke-width="1" opacity="0.35294117647058826" d="M 38.5 50 L 37.5 52 L 38.5 50 Z "></path><path fill="rgb(0,0,0)" stroke="rgb(0,0,0)" stroke-width="1" opacity="0.35294117647058826" d="M 41.5 50 L 42 52.5 L 40 53.5 L 41.5 50 Z "></path><path fill="rgb(0,0,0)" stroke="rgb(0,0,0)" stroke-width="1" opacity="0.35294117647058826" d="M 27.5 56 L 28 62.5 L 27 62.5 L 27.5 56 Z "></path><path fill="rgb(0,0,0)" stroke="rgb(0,0,0)" stroke-width="1" opacity="0.35294117647058826" d="M 36.5 56 L 35.5 58 L 36.5 56 Z "></path><path fill="rgb(0,0,0)" stroke="rgb(0,0,0)" stroke-width="1" opacity="0.35294117647058826" d="M 44.5 56 L 45 62.5 L 44 62.5 L 44.5 56 Z "></path><path fill="rgb(0,0,0)" stroke="rgb(0,0,0)" stroke-width="1" opacity="0.35294117647058826" d="M 73.5 58 L 74 63.5 L 73 63.5 L 73.5 58 Z "></path><path fill="rgb(0,0,0)" stroke="rgb(0,0,0)" stroke-width="1" opacity="0.35294117647058826" d="M 29.5 60 L 30 66.5 L 29 66.5 L 29.5 60 Z "></path><path fill="rgb(0,0,0)" stroke="rgb(0,0,0)" stroke-width="1" opacity="0.35294117647058826" d="M 42.5 60 L 43 66.5 L 42 66.5 L 42.5 60 Z "></path><path fill="rgb(0,0,0)" stroke="rgb(0,0,0)" stroke-width="1" opacity="0.35294117647058826" d="M 71.5 62 L 72 67.5 L 71 67.5 L 71.5 62 Z "></path><path fill="rgb(0,0,0)" stroke="rgb(0,0,0)" stroke-width="1" opacity="0.35294117647058826" d="M 18.5 67 L 15.5 71 L 18.5 67 Z "></path><path fill="rgb(0,0,0)" stroke="rgb(0,0,0)" stroke-width="1" opacity="0.35294117647058826" d="M 53.5 67 L 56.5 71 L 53.5 67 Z "></path><path fill="rgb(0,0,0)" stroke="rgb(0,0,0)" stroke-width="1" opacity="0.35294117647058826" d="M 19.5 69 L 17.5 72 L 19.5 69 Z "></path><path fill="rgb(0,0,0)" stroke="rgb(0,0,0)" stroke-width="1" opacity="0.35294117647058826" d="M 52.5 69 L 54.5 72 L 52.5 69 Z "></path><path fill="rgb(0,0,0)" stroke="rgb(0,0,0)" stroke-width="1" opacity="0.35294117647058826" d="M 22.5 73 L 21.5 75 L 22.5 73 Z "></path><path fill="rgb(0,0,0)" stroke="rgb(0,0,0)" stroke-width="1" opacity="0.35294117647058826" d="M 25.5 73 L 26.5 75 L 25.5 73 Z "></path><path fill="rgb(0,0,0)" stroke="rgb(0,0,0)" stroke-width="1" opacity="0.35294117647058826" d="M 46.5 73 L 45.5 75 L 46.5 73 Z "></path><path fill="rgb(0,0,0)" stroke="rgb(0,0,0)" stroke-width="1" opacity="0.35294117647058826" d="M 49.5 73 L 50.5 75 L 49.5 73 Z "></path><path fill="rgb(0,0,0)" stroke="rgb(0,0,0)" stroke-width="1" opacity="0.35294117647058826" d="M 74.5 73 L 75 78.5 L 74 78.5 L 74.5 73 Z "></path><path fill="rgb(0,0,0)" stroke="rgb(0,0,0)" stroke-width="1" opacity="0.35294117647058826" d="M 21.5 77 L 22.5 79 L 21.5 77 Z "></path><path fill="rgb(0,0,0)" stroke="rgb(0,0,0)" stroke-width="1" opacity="0.35294117647058826" d="M 26.5 77 L 25.5 79 L 26.5 77 Z "></path><path fill="rgb(0,0,0)" stroke="rgb(0,0,0)" stroke-width="1" opacity="0.35294117647058826" d="M 45.5 77 L 46.5 79 L 45.5 77 Z "></path><path fill="rgb(0,0,0)" stroke="rgb(0,0,0)" stroke-width="1" opacity="0.35294117647058826" d="M 50.5 77 L 49.5 79 L 50.5 77 Z "></path><path fill="rgb(0,0,0)" stroke="rgb(0,0,0)" stroke-width="1" opacity="0.35294117647058826" d="M 72.5 77 L 73 81.5 L 72 81.5 L 72.5 77 Z "></path><path fill="rgb(0,0,0)" stroke="rgb(0,0,0)" stroke-width="1" opacity="0.35294117647058826" d="M 17.5 80 L 19.5 83 L 17.5 80 Z "></path><path fill="rgb(0,0,0)" stroke="rgb(0,0,0)" stroke-width="1" opacity="0.35294117647058826" d="M 30.5 80 L 28.5 83 L 30.5 80 Z "></path><path fill="rgb(0,0,0)" stroke="rgb(0,0,0)" stroke-width="1" opacity="0.35294117647058826" d="M 41.5 80 L 43.5 83 L 41.5 80 Z "></path><path fill="rgb(0,0,0)" stroke="rgb(0,0,0)" stroke-width="1" opacity="0.35294117647058826" d="M 54.5 80 L 52.5 83 L 54.5 80 Z "></path><path fill="rgb(0,0,0)" stroke="rgb(0,0,0)" stroke-width="1" opacity="0.35294117647058826" d="M 15.5 81 L 18.5 85 L 15.5 81 Z "></path><path fill="rgb(0,0,0)" stroke="rgb(0,0,0)" stroke-width="1" opacity="0.35294117647058826" d="M 32.5 81 L 29.5 85 L 32.5 81 Z "></path><path fill="rgb(0,0,0)" stroke="rgb(0,0,0)" stroke-width="1" opacity="0.35294117647058826" d="M 39.5 81 L 41.5 84 L 39.5 81 Z "></path><path fill="rgb(255,255,255)" stroke="rgb(0,0,0)" stroke-width="1" opacity="0.35294117647058826" d="M 56.5 81 L 53.5 85 L 56.5 81 Z "></path><path fill="rgb(0,0,0)" stroke="rgb(0,0,0)" stroke-width="1" opacity="0.35294117647058826" d="M 46.5 87 L 48.5 90 L 46.5 87 Z "></path><path fill="rgb(0,0,0)" stroke="rgb(0,0,0)" stroke-width="1" opacity="0.35294117647058826" d="M 44.5 88 L 47.5 92 L 44.5 88 Z "></path><path fill="rgb(0,0,0)" stroke="rgb(0,0,0)" stroke-width="1" opacity="0.996078431372549" d="M 56.5 13 L 74.5 13 L 78 15.5 L 79 17.5 L 79 84.5 Q 78.3 86.8 74.5 86 L 73 84.5 L 72 57.5 Q 69.8 56.2 71 51.5 L 69.5 50 L 56 49.5 L 66 49 L 65.5 46 L 56.5 46 L 56.5 45 L 65.5 45 L 66 42 L 56 41.5 L 66 41 L 65.5 38 L 56.5 38 L 56.5 37 L 65.5 37 L 66 34 L 56 33.5 L 66 33 L 65.5 30 L 56.5 30 L 56.5 29 L 65.5 29 L 66 26 L 56 25.5 L 66 25 L 65.5 22 L 56.5 22 L 56.5 21 L 65.5 21 L 66 18 L 56 17.5 L 66 17 L 65.5 14 L 56.5 14 L 56.5 13 Z M 68 15 L 68 49 L 71 49 L 73 55 L 73 69 L 74 70 L 74 84 L 77 84 L 77 17 L 76 15 L 74 16 L 74 34 L 73 34 L 73 16 L 68 15 Z "></path><path fill="rgb(0,0,0)" stroke="rgb(0,0,0)" stroke-width="1" opacity="0.996078431372549" d="M 35 14 Q 38.7 12.7 37 18.5 L 44 52.5 L 44 67 L 48.5 66 L 56 70.5 L 58 76.5 L 53.5 84 L 47.5 86 L 45 85 L 49.5 91 Q 55.4 89.3 54 93 Q 47.9 92.7 45 88.5 L 38 76.5 L 38 62.5 L 37 60 Q 34.3 58.9 35 61.5 L 34 62.5 L 34 76.5 L 29.5 84 L 23.5 86 L 16 81.5 L 14 75.5 L 18.5 68 L 24.5 66 L 28 67 L 28 52.5 L 30 46.5 L 35 14 Z M 35 20 L 29 56 L 29 68 L 21 68 Q 14 70 16 80 Q 18 86 28 84 L 32 80 L 32 65 L 35 59 L 42 53 L 39 32 L 37 26 Q 39 19 35 20 Z M 41 55 L 37 59 L 40 65 L 40 80 L 45 84 Q 54 86 56 80 Q 58 70 52 68 L 43 68 L 43 56 L 41 55 Z "></path><path fill="rgb(0,0,0)" stroke="rgb(0,0,0)" stroke-width="1" opacity="0.996078431372549" d="M 73.5 38 L 74 40.5 L 73 40.5 L 73.5 38 Z "></path><path fill="rgb(0,0,0)" stroke="rgb(0,0,0)" stroke-width="1" opacity="0.996078431372549" d="M 23.5 71 L 28 73.5 L 29 76.5 L 26.5 80 L 23.5 81 L 20 78.5 L 19 75.5 L 21.5 72 L 23.5 71 Z M 23 73 Q 20 74 21 78 Q 22 80 26 79 Q 28 78 27 75 Q 26 72 23 73 Z "></path><path fill="rgb(0,0,0)" stroke="rgb(0,0,0)" stroke-width="1" opacity="0.996078431372549" d="M 47.5 71 L 52 73.5 L 53 76.5 L 50.5 80 L 47.5 81 L 44 78.5 L 43 75.5 L 45.5 72 L 47.5 71 Z M 47 73 Q 44 74 45 78 Q 46 80 50 79 Q 52 78 51 75 Q 50 72 47 73 Z "></path></svg>