
<svg version="1.0" xmlns="http://www.w3.org/2000/svg"
  viewBox="0 0 594.000000 420.000000"
 preserveAspectRatio="xMidYMid meet">

<g transform="translate(0.000000,420.000000) scale(0.100000,-0.100000)"
fill="#ffffff" stroke="none">
<path d="M4773 3356 c-140 -65 -253 -174 -451 -431 -287 -373 -269 -353 -320
-361 -110 -17 -274 12 -383 67 -99 49 -135 121 -93 184 20 30 7 32 -43 8 -44
-21 -73 -66 -73 -115 0 -116 248 -226 486 -216 l91 4 -78 -91 c-207 -239 -247
-273 -365 -309 -119 -37 -199 -81 -225 -122 -36 -58 -25 -115 26 -134 50 -18
67 -22 61 -12 -31 50 170 171 374 226 191 50 264 60 470 60 232 1 428 -28 598
-88 68 -24 49 -9 -50 40 -186 92 -356 118 -734 113 -254 -4 -254 -4 -227 15
37 25 203 194 272 274 46 55 66 69 145 105 410 185 626 365 712 593 34 91 32
147 -5 185 -25 25 -37 29 -83 29 -35 0 -71 -8 -105 -24z m138 -49 c25 -55 -41
-173 -189 -343 -130 -148 -292 -268 -426 -314 l-57 -19 79 102 c44 56 97 125
118 153 145 190 303 368 368 416 49 35 92 37 107 5z"/>
<path d="M1165 3359 c-254 -50 -480 -200 -560 -370 -34 -73 -33 -113 4 -150
16 -16 38 -29 48 -29 10 0 29 -3 42 -7 l25 -6 -22 35 c-41 66 -26 106 77 199
83 76 149 117 272 170 135 59 232 80 389 86 116 5 148 2 218 -15 199 -51 295
-170 262 -326 -32 -154 -169 -343 -355 -489 -306 -239 -792 -431 -1127 -445
-171 -7 -207 15 -179 109 23 77 197 231 399 353 34 20 62 39 62 41 0 9 -134
-57 -217 -106 -127 -74 -201 -129 -261 -193 -119 -125 -108 -226 30 -287 44
-19 75 -23 184 -27 171 -6 303 15 494 78 295 96 534 233 781 447 216 186 318
401 279 589 -36 172 -141 260 -390 326 -87 23 -371 34 -455 17z"/>
<path d="M1473 3159 c-96 -47 -477 -577 -553 -768 -29 -73 -24 -105 15 -109
22 -2 39 6 65 28 21 19 26 27 13 20 -28 -13 -43 -13 -43 2 0 29 165 255 363
496 156 190 225 260 265 268 17 4 32 10 32 14 0 19 -78 70 -108 70 -4 0 -26
-9 -49 -21z"/>
<path d="M4934 2927 c-35 -41 -56 -92 -52 -125 5 -44 35 -39 87 12 26 26 60
50 75 54 l28 8 -26 31 c-14 17 -39 36 -56 41 -27 10 -32 8 -56 -21z"/>
<path d="M3342 2917 c-30 -31 -64 -114 -57 -136 12 -39 36 -32 97 25 35 31 66
53 74 50 36 -14 -5 48 -46 69 -38 20 -43 19 -68 -8z"/>
<path d="M5118 2718 c-25 -29 -66 -81 -92 -115 -26 -34 -53 -66 -61 -70 -7 -4
-40 -33 -72 -64 -89 -85 -228 -188 -239 -177 -2 3 24 49 57 104 93 153 184
268 201 258 5 -4 8 4 6 17 -3 22 -59 69 -81 69 -17 0 -98 -90 -158 -175 -63
-89 -120 -197 -140 -264 -13 -42 -12 -44 15 -67 33 -29 55 -30 104 -5 40 21
167 126 233 193 l41 43 -31 -51 c-52 -86 -63 -121 -51 -158 12 -39 54 -81 69
-71 6 3 11 16 11 29 0 54 113 183 270 307 118 94 209 158 194 139 -6 -8 -39
-52 -73 -97 -71 -95 -131 -213 -131 -259 0 -39 34 -84 64 -84 12 0 33 8 46 17
91 62 370 326 370 350 0 8 -46 -29 -103 -84 -95 -90 -252 -211 -262 -201 -17
17 134 254 221 349 13 14 24 34 24 45 0 29 -28 64 -51 64 -52 0 -212 -112
-369 -259 -79 -73 -108 -96 -97 -74 36 69 203 267 218 257 5 -3 9 4 9 15 0 23
-54 71 -80 71 -10 0 -38 -24 -62 -52z"/>
<path d="M2591 2696 c-29 -29 -69 -78 -90 -107 -51 -74 -267 -236 -409 -308
-111 -56 -165 -27 -108 59 20 31 34 40 75 50 59 14 166 68 234 117 56 42 137
137 137 163 0 30 -56 70 -99 70 -100 0 -237 -77 -356 -199 -112 -115 -163
-225 -133 -288 18 -38 74 -73 117 -73 69 0 253 109 424 251 l38 32 -30 -45
c-38 -56 -71 -132 -71 -163 0 -26 45 -85 63 -85 7 1 23 24 36 52 30 63 181
216 306 308 154 114 155 114 75 4 -73 -99 -121 -190 -135 -251 -6 -28 -2 -37
23 -63 17 -16 41 -30 54 -30 30 0 108 53 187 126 l61 56 -20 -43 c-33 -73 -24
-117 29 -139 51 -21 115 23 279 189 137 140 173 181 154 181 -4 0 -63 -52
-131 -115 -112 -104 -202 -175 -222 -175 -12 0 6 43 51 120 72 124 173 245
197 236 7 -3 13 2 13 10 0 20 -63 84 -83 84 -28 0 -76 -51 -141 -149 -40 -61
-92 -123 -139 -167 -78 -71 -183 -142 -194 -130 -10 9 66 152 115 217 23 32
63 80 88 108 50 56 52 81 8 122 l-25 23 -37 -19 c-60 -32 -260 -187 -351 -271
-80 -75 -83 -77 -56 -34 75 120 169 230 197 230 10 0 18 3 18 6 0 15 -44 66
-69 79 -27 14 -29 13 -80 -39z m-211 -8 c0 -20 -170 -180 -240 -227 -67 -44
-108 -55 -91 -23 24 44 211 204 286 245 37 20 45 21 45 5z"/>
<path d="M4425 1953 c-190 -16 -525 -78 -805 -149 -222 -56 -210 -52 -210 -75
0 -20 1 -20 32 2 45 33 132 37 176 10 36 -23 70 -72 79 -113 3 -16 7 -28 8
-28 1 0 22 7 46 16 74 26 311 82 441 103 362 60 710 53 978 -20 258 -70 442
-205 486 -357 50 -168 -77 -398 -279 -510 -123 -67 -226 -94 -392 -99 -210 -7
-343 29 -452 121 -86 74 -111 196 -65 316 l21 55 -31 -35 c-67 -77 -86 -174
-49 -255 39 -86 187 -188 331 -228 155 -44 373 -46 552 -7 372 81 599 370 523
665 -80 305 -462 527 -1006 585 -88 9 -293 11 -384 3z"/>
<path d="M3170 1759 l0 -71 -29 7 c-66 14 -141 -51 -141 -123 0 -83 49 -131
120 -117 19 4 50 7 68 6 l32 -1 0 185 0 185 -25 0 c-24 0 -25 -2 -25 -71z m0
-178 c0 -86 -4 -91 -61 -91 -40 0 -63 37 -56 91 7 55 31 79 79 79 l38 0 0 -79z"/>
<path d="M810 1630 l0 -170 25 0 c24 0 25 2 25 70 l0 70 70 0 c63 0 70 2 70
20 0 18 -7 20 -70 20 l-70 0 0 60 0 60 80 0 c73 0 80 2 80 20 0 19 -7 20 -105
20 l-105 0 0 -170z"/>
<path d="M1255 1790 c-11 -17 5 -50 24 -50 24 0 45 25 37 45 -6 17 -51 21 -61
5z"/>
<path d="M3294 1786 c-10 -26 4 -48 28 -44 17 2 23 10 23 28 0 18 -6 26 -23
28 -13 2 -25 -3 -28 -12z"/>
<path d="M2577 1743 c-4 -3 -7 -17 -7 -30 0 -18 -5 -23 -25 -23 -16 0 -25 -6
-25 -15 0 -9 9 -15 25 -15 25 0 25 -1 25 -85 0 -72 3 -88 20 -105 20 -20 47
-25 87 -14 30 8 18 34 -16 34 -42 0 -51 17 -51 97 l0 73 40 0 c29 0 40 4 40
15 0 11 -11 15 -40 15 -38 0 -40 2 -40 30 0 28 -17 40 -33 23z"/>
<path d="M1160 1693 c-8 -3 -23 -12 -32 -21 -16 -14 -18 -13 -18 1 0 10 -8 17
-20 17 -19 0 -20 -7 -20 -115 0 -108 1 -115 20 -115 18 0 20 7 20 78 0 90 14
112 69 112 28 0 32 3 29 22 -3 23 -21 31 -48 21z"/>
<path d="M1425 1693 c-32 -8 -55 -34 -55 -63 0 -34 23 -55 76 -69 47 -13 69
-33 60 -57 -5 -12 -17 -15 -54 -12 -26 3 -54 8 -63 12 -11 5 -19 2 -23 -9 -12
-33 99 -59 147 -34 30 16 37 28 37 66 0 37 -21 55 -87 72 -49 13 -60 26 -42
47 12 15 55 16 98 3 8 -2 16 4 19 13 2 12 -7 20 -35 27 -40 11 -46 12 -78 4z"/>
<path d="M1663 1686 c-46 -21 -67 -59 -67 -123 0 -44 4 -58 25 -79 34 -33 92
-41 143 -20 32 13 36 18 26 31 -9 11 -17 12 -30 5 -46 -25 -120 3 -120 45 0
12 16 15 80 15 86 0 85 -1 80 60 -4 57 -77 92 -137 66z m87 -45 c18 -36 12
-41 -50 -41 -60 0 -61 0 -49 23 16 29 28 37 61 37 17 0 31 -7 38 -19z"/>
<path d="M2208 1684 c-16 -8 -28 -10 -28 -4 0 5 -9 10 -20 10 -19 0 -20 -7
-20 -115 0 -108 1 -115 20 -115 18 0 20 7 20 78 0 90 14 112 69 112 28 0 32 3
29 23 -4 27 -33 32 -70 11z"/>
<path d="M2354 1686 c-29 -13 -44 -33 -44 -60 0 -26 28 -48 80 -65 46 -15 55
-22 55 -42 0 -21 -5 -24 -42 -27 -23 -2 -51 2 -62 7 -14 8 -22 7 -31 -4 -10
-13 -6 -18 26 -31 76 -32 164 -2 164 56 0 34 -22 54 -85 77 -37 14 -50 24 -50
38 0 24 41 32 85 17 23 -8 30 -7 34 5 9 22 9 21 -31 32 -48 14 -61 13 -99 -3z"/>
<path d="M3470 1687 c-64 -22 -90 -119 -50 -185 38 -63 132 -69 183 -12 22 25
27 39 27 85 0 46 -4 60 -27 84 -33 35 -83 46 -133 28z m92 -44 c23 -26 31 -75
18 -109 -14 -35 -26 -44 -67 -44 -41 0 -63 30 -63 85 0 55 22 85 64 85 19 0
40 -8 48 -17z"/>
<path d="M1260 1575 l0 -115 25 0 25 0 0 115 0 115 -25 0 -25 0 0 -115z"/>
<path d="M1860 1590 c0 -89 2 -102 21 -121 18 -18 28 -20 68 -14 25 3 61 6 79
6 l32 -1 0 115 0 115 -25 0 c-25 0 -25 0 -25 -94 0 -89 -1 -94 -22 -100 -73
-19 -88 0 -88 113 0 74 -2 81 -20 81 -19 0 -20 -7 -20 -100z"/>
<path d="M2742 1589 c3 -93 5 -102 28 -121 20 -16 33 -19 65 -13 22 4 55 7 73
6 l32 -1 0 115 c0 108 -1 115 -20 115 -19 0 -20 -7 -20 -90 0 -100 -9 -114
-73 -108 l-32 3 -3 98 c-3 97 -3 97 -28 97 l-26 0 4 -101z"/>
<path d="M3300 1575 c0 -108 1 -115 20 -115 19 0 20 7 20 115 0 108 -1 115
-20 115 -19 0 -20 -7 -20 -115z"/>
<path d="M378 1460 c149 -146 366 -261 604 -320 161 -40 306 -53 528 -46 277
8 528 45 872 132 113 28 529 152 605 181 14 5 -24 8 -100 9 -67 1 -129 2 -137
2 -8 1 -42 -1 -75 -4 -52 -5 -65 -2 -95 18 l-35 24 -34 -23 c-36 -24 -46 -26
-206 -27 -76 -1 -131 -9 -231 -33 -72 -18 -216 -47 -320 -65 -183 -31 -197
-32 -469 -32 -269 0 -285 1 -403 27 -195 44 -377 114 -542 209 -27 15 -17 3
38 -52z"/>
</g>
</svg>
